<svg xmlns="http://www.w3.org/2000/svg" width="1100" height="510" viewBox="0 0 1100 510"><rect width="100%" height="100%" fill="white"/><rect x="300" y="20" width="500" height="80" rx="10" fill="#f4f6f8" stroke="#80909c" stroke-width="2"/><text x="318" y="54" font-family="DejaVu Sans" font-size="23" font-weight="700" fill="#202c35">Interface Compose</text><text x="318" y="84" font-family="DejaVu Sans" font-size="23" font-weight="400" fill="#202c35">Tela inicial e formulário</text><path d="M550 100 L550 150" fill="none" stroke="#344956" stroke-width="3"/><path d="M543 138 L550 150 L557 138" fill="none" stroke="#344956" stroke-width="3"/><rect x="300" y="150" width="500" height="80" rx="10" fill="#f4f6f8" stroke="#80909c" stroke-width="2"/><text x="318" y="184" font-family="DejaVu Sans" font-size="23" font-weight="700" fill="#202c35">ViewModels</text><text x="318" y="214" font-family="DejaVu Sans" font-size="23" font-weight="400" fill="#202c35">Estados da tela e ações da usuária</text><path d="M550 230 L550 280" fill="none" stroke="#344956" stroke-width="3"/><path d="M543 268 L550 280 L557 268" fill="none" stroke="#344956" stroke-width="3"/><rect x="300" y="280" width="500" height="80" rx="10" fill="#f4f6f8" stroke="#80909c" stroke-width="2"/><text x="318" y="314" font-family="DejaVu Sans" font-size="23" font-weight="700" fill="#202c35">Repositório de demandas</text><text x="318" y="344" font-family="DejaVu Sans" font-size="23" font-weight="400" fill="#202c35">Validação e acesso aos registros</text><path d="M550 360 L550 410" fill="none" stroke="#344956" stroke-width="3"/><path d="M543 398 L550 410 L557 398" fill="none" stroke="#344956" stroke-width="3"/><rect x="300" y="410" width="500" height="80" rx="10" fill="#f4f6f8" stroke="#80909c" stroke-width="2"/><text x="318" y="444" font-family="DejaVu Sans" font-size="23" font-weight="700" fill="#202c35">Room e SQLite</text><text x="318" y="474" font-family="DejaVu Sans" font-size="23" font-weight="400" fill="#202c35">Armazenamento interno no Android</text></svg>